<svg xmlns="http://www.w3.org/2000/svg" width="512" height="512" viewBox="0 0 512 512">
  <defs><clipPath id="c"><rect width="512" height="512" rx="112"/></clipPath></defs>
  <g clip-path="url(#c)">
    <rect x="-48" y="-42" width="620" height="630" fill="#110c22"/>
    <polygon points="-48,-42 -24,0 0,-42" fill="#302452"/>
    <polygon points="-24,0 0,-42 24,0" fill="#7b5daa"/>
    <polygon points="0,-42 24,0 48,-42" fill="#302452"/>
    <polygon points="24,0 48,-42 72,0" fill="#110c22"/>
    <polygon points="48,-42 72,0 96,-42" fill="#302452"/>
    <polygon points="72,0 96,-42 120,0" fill="#7b5daa"/>
    <polygon points="96,-42 120,0 144,-42" fill="#302452"/>
    <polygon points="120,0 144,-42 168,0" fill="#110c22"/>
    <polygon points="144,-42 168,0 192,-42" fill="#302452"/>
    <polygon points="168,0 192,-42 216,0" fill="#7b5daa"/>
    <polygon points="192,-42 216,0 240,-42" fill="#302452"/>
    <polygon points="216,0 240,-42 264,0" fill="#110c22"/>
    <polygon points="240,-42 264,0 288,-42" fill="#302452"/>
    <polygon points="264,0 288,-42 312,0" fill="#7b5daa"/>
    <polygon points="288,-42 312,0 336,-42" fill="#302452"/>
    <polygon points="312,0 336,-42 360,0" fill="#110c22"/>
    <polygon points="336,-42 360,0 384,-42" fill="#302452"/>
    <polygon points="360,0 384,-42 408,0" fill="#7b5daa"/>
    <polygon points="384,-42 408,0 432,-42" fill="#302452"/>
    <polygon points="408,0 432,-42 456,0" fill="#110c22"/>
    <polygon points="432,-42 456,0 480,-42" fill="#302452"/>
    <polygon points="456,0 480,-42 504,0" fill="#7b5daa"/>
    <polygon points="480,-42 504,0 528,-42" fill="#302452"/>
    <polygon points="504,0 528,-42 552,0" fill="#110c22"/>
    <polygon points="528,-42 552,0 576,-42" fill="#302452"/>
    <polygon points="-48,42 -24,0 0,42" fill="#7b5daa"/>
    <polygon points="-24,0 0,42 24,0" fill="#302452"/>
    <polygon points="0,42 24,0 48,42" fill="#110c22"/>
    <polygon points="24,0 48,42 72,0" fill="#302452"/>
    <polygon points="48,42 72,0 96,42" fill="#7b5daa"/>
    <polygon points="72,0 96,42 120,0" fill="#302452"/>
    <polygon points="96,42 120,0 144,42" fill="#110c22"/>
    <polygon points="120,0 144,42 168,0" fill="#302452"/>
    <polygon points="144,42 168,0 192,42" fill="#7b5daa"/>
    <polygon points="168,0 192,42 216,0" fill="#302452"/>
    <polygon points="192,42 216,0 240,42" fill="#110c22"/>
    <polygon points="216,0 240,42 264,0" fill="#302452"/>
    <polygon points="240,42 264,0 288,42" fill="#7b5daa"/>
    <polygon points="264,0 288,42 312,0" fill="#302452"/>
    <polygon points="288,42 312,0 336,42" fill="#110c22"/>
    <polygon points="312,0 336,42 360,0" fill="#302452"/>
    <polygon points="336,42 360,0 384,42" fill="#7b5daa"/>
    <polygon points="360,0 384,42 408,0" fill="#302452"/>
    <polygon points="384,42 408,0 432,42" fill="#110c22"/>
    <polygon points="408,0 432,42 456,0" fill="#302452"/>
    <polygon points="432,42 456,0 480,42" fill="#7b5daa"/>
    <polygon points="456,0 480,42 504,0" fill="#302452"/>
    <polygon points="480,42 504,0 528,42" fill="#110c22"/>
    <polygon points="504,0 528,42 552,0" fill="#302452"/>
    <polygon points="528,42 552,0 576,42" fill="#7b5daa"/>
    <polygon points="-48,42 -24,84 0,42" fill="#302452"/>
    <polygon points="-24,84 0,42 24,84" fill="#110c22"/>
    <polygon points="0,42 24,84 48,42" fill="#302452"/>
    <polygon points="24,84 48,42 72,84" fill="#7b5daa"/>
    <polygon points="48,42 72,84 96,42" fill="#302452"/>
    <polygon points="72,84 96,42 120,84" fill="#110c22"/>
    <polygon points="96,42 120,84 144,42" fill="#302452"/>
    <polygon points="120,84 144,42 168,84" fill="#7b5daa"/>
    <polygon points="144,42 168,84 192,42" fill="#302452"/>
    <polygon points="168,84 192,42 216,84" fill="#110c22"/>
    <polygon points="192,42 216,84 240,42" fill="#302452"/>
    <polygon points="216,84 240,42 264,84" fill="#7b5daa"/>
    <polygon points="240,42 264,84 288,42" fill="#302452"/>
    <polygon points="264,84 288,42 312,84" fill="#110c22"/>
    <polygon points="288,42 312,84 336,42" fill="#302452"/>
    <polygon points="312,84 336,42 360,84" fill="#7b5daa"/>
    <polygon points="336,42 360,84 384,42" fill="#302452"/>
    <polygon points="360,84 384,42 408,84" fill="#110c22"/>
    <polygon points="384,42 408,84 432,42" fill="#302452"/>
    <polygon points="408,84 432,42 456,84" fill="#7b5daa"/>
    <polygon points="432,42 456,84 480,42" fill="#302452"/>
    <polygon points="456,84 480,42 504,84" fill="#110c22"/>
    <polygon points="480,42 504,84 528,42" fill="#302452"/>
    <polygon points="504,84 528,42 552,84" fill="#7b5daa"/>
    <polygon points="528,42 552,84 576,42" fill="#302452"/>
    <polygon points="-48,126 -24,84 0,126" fill="#110c22"/>
    <polygon points="-24,84 0,126 24,84" fill="#302452"/>
    <polygon points="0,126 24,84 48,126" fill="#7b5daa"/>
    <polygon points="24,84 48,126 72,84" fill="#302452"/>
    <polygon points="48,126 72,84 96,126" fill="#110c22"/>
    <polygon points="72,84 96,126 120,84" fill="#302452"/>
    <polygon points="96,126 120,84 144,126" fill="#7b5daa"/>
    <polygon points="120,84 144,126 168,84" fill="#302452"/>
    <polygon points="144,126 168,84 192,126" fill="#110c22"/>
    <polygon points="168,84 192,126 216,84" fill="#302452"/>
    <polygon points="192,126 216,84 240,126" fill="#7b5daa"/>
    <polygon points="216,84 240,126 264,84" fill="#302452"/>
    <polygon points="240,126 264,84 288,126" fill="#110c22"/>
    <polygon points="264,84 288,126 312,84" fill="#302452"/>
    <polygon points="288,126 312,84 336,126" fill="#7b5daa"/>
    <polygon points="312,84 336,126 360,84" fill="#302452"/>
    <polygon points="336,126 360,84 384,126" fill="#110c22"/>
    <polygon points="360,84 384,126 408,84" fill="#302452"/>
    <polygon points="384,126 408,84 432,126" fill="#7b5daa"/>
    <polygon points="408,84 432,126 456,84" fill="#302452"/>
    <polygon points="432,126 456,84 480,126" fill="#110c22"/>
    <polygon points="456,84 480,126 504,84" fill="#302452"/>
    <polygon points="480,126 504,84 528,126" fill="#7b5daa"/>
    <polygon points="504,84 528,126 552,84" fill="#302452"/>
    <polygon points="528,126 552,84 576,126" fill="#110c22"/>
    <polygon points="-48,126 -24,168 0,126" fill="#302452"/>
    <polygon points="-24,168 0,126 24,168" fill="#7b5daa"/>
    <polygon points="0,126 24,168 48,126" fill="#302452"/>
    <polygon points="24,168 48,126 72,168" fill="#110c22"/>
    <polygon points="48,126 72,168 96,126" fill="#302452"/>
    <polygon points="72,168 96,126 120,168" fill="#7b5daa"/>
    <polygon points="96,126 120,168 144,126" fill="#302452"/>
    <polygon points="120,168 144,126 168,168" fill="#110c22"/>
    <polygon points="144,126 168,168 192,126" fill="#302452"/>
    <polygon points="168,168 192,126 216,168" fill="#7b5daa"/>
    <polygon points="192,126 216,168 240,126" fill="#302452"/>
    <polygon points="216,168 240,126 264,168" fill="#110c22"/>
    <polygon points="240,126 264,168 288,126" fill="#302452"/>
    <polygon points="264,168 288,126 312,168" fill="#7b5daa"/>
    <polygon points="288,126 312,168 336,126" fill="#302452"/>
    <polygon points="312,168 336,126 360,168" fill="#110c22"/>
    <polygon points="336,126 360,168 384,126" fill="#302452"/>
    <polygon points="360,168 384,126 408,168" fill="#7b5daa"/>
    <polygon points="384,126 408,168 432,126" fill="#302452"/>
    <polygon points="408,168 432,126 456,168" fill="#110c22"/>
    <polygon points="432,126 456,168 480,126" fill="#302452"/>
    <polygon points="456,168 480,126 504,168" fill="#7b5daa"/>
    <polygon points="480,126 504,168 528,126" fill="#302452"/>
    <polygon points="504,168 528,126 552,168" fill="#110c22"/>
    <polygon points="528,126 552,168 576,126" fill="#302452"/>
    <polygon points="-48,210 -24,168 0,210" fill="#7b5daa"/>
    <polygon points="-24,168 0,210 24,168" fill="#302452"/>
    <polygon points="0,210 24,168 48,210" fill="#110c22"/>
    <polygon points="24,168 48,210 72,168" fill="#302452"/>
    <polygon points="48,210 72,168 96,210" fill="#7b5daa"/>
    <polygon points="72,168 96,210 120,168" fill="#302452"/>
    <polygon points="96,210 120,168 144,210" fill="#110c22"/>
    <polygon points="120,168 144,210 168,168" fill="#302452"/>
    <polygon points="144,210 168,168 192,210" fill="#7b5daa"/>
    <polygon points="168,168 192,210 216,168" fill="#302452"/>
    <polygon points="192,210 216,168 240,210" fill="#110c22"/>
    <polygon points="216,168 240,210 264,168" fill="#302452"/>
    <polygon points="240,210 264,168 288,210" fill="#7b5daa"/>
    <polygon points="264,168 288,210 312,168" fill="#302452"/>
    <polygon points="288,210 312,168 336,210" fill="#110c22"/>
    <polygon points="312,168 336,210 360,168" fill="#302452"/>
    <polygon points="336,210 360,168 384,210" fill="#7b5daa"/>
    <polygon points="360,168 384,210 408,168" fill="#302452"/>
    <polygon points="384,210 408,168 432,210" fill="#110c22"/>
    <polygon points="408,168 432,210 456,168" fill="#302452"/>
    <polygon points="432,210 456,168 480,210" fill="#7b5daa"/>
    <polygon points="456,168 480,210 504,168" fill="#302452"/>
    <polygon points="480,210 504,168 528,210" fill="#110c22"/>
    <polygon points="504,168 528,210 552,168" fill="#302452"/>
    <polygon points="528,210 552,168 576,210" fill="#7b5daa"/>
    <polygon points="-48,210 -24,252 0,210" fill="#302452"/>
    <polygon points="-24,252 0,210 24,252" fill="#110c22"/>
    <polygon points="0,210 24,252 48,210" fill="#302452"/>
    <polygon points="24,252 48,210 72,252" fill="#7b5daa"/>
    <polygon points="48,210 72,252 96,210" fill="#302452"/>
    <polygon points="72,252 96,210 120,252" fill="#110c22"/>
    <polygon points="96,210 120,252 144,210" fill="#302452"/>
    <polygon points="120,252 144,210 168,252" fill="#7b5daa"/>
    <polygon points="144,210 168,252 192,210" fill="#302452"/>
    <polygon points="168,252 192,210 216,252" fill="#110c22"/>
    <polygon points="192,210 216,252 240,210" fill="#302452"/>
    <polygon points="216,252 240,210 264,252" fill="#7b5daa"/>
    <polygon points="240,210 264,252 288,210" fill="#302452"/>
    <polygon points="264,252 288,210 312,252" fill="#110c22"/>
    <polygon points="288,210 312,252 336,210" fill="#302452"/>
    <polygon points="312,252 336,210 360,252" fill="#7b5daa"/>
    <polygon points="336,210 360,252 384,210" fill="#302452"/>
    <polygon points="360,252 384,210 408,252" fill="#110c22"/>
    <polygon points="384,210 408,252 432,210" fill="#302452"/>
    <polygon points="408,252 432,210 456,252" fill="#7b5daa"/>
    <polygon points="432,210 456,252 480,210" fill="#302452"/>
    <polygon points="456,252 480,210 504,252" fill="#110c22"/>
    <polygon points="480,210 504,252 528,210" fill="#302452"/>
    <polygon points="504,252 528,210 552,252" fill="#7b5daa"/>
    <polygon points="528,210 552,252 576,210" fill="#302452"/>
    <polygon points="-48,294 -24,252 0,294" fill="#110c22"/>
    <polygon points="-24,252 0,294 24,252" fill="#302452"/>
    <polygon points="0,294 24,252 48,294" fill="#7b5daa"/>
    <polygon points="24,252 48,294 72,252" fill="#302452"/>
    <polygon points="48,294 72,252 96,294" fill="#110c22"/>
    <polygon points="72,252 96,294 120,252" fill="#302452"/>
    <polygon points="96,294 120,252 144,294" fill="#7b5daa"/>
    <polygon points="120,252 144,294 168,252" fill="#302452"/>
    <polygon points="144,294 168,252 192,294" fill="#110c22"/>
    <polygon points="168,252 192,294 216,252" fill="#302452"/>
    <polygon points="192,294 216,252 240,294" fill="#7b5daa"/>
    <polygon points="216,252 240,294 264,252" fill="#302452"/>
    <polygon points="240,294 264,252 288,294" fill="#110c22"/>
    <polygon points="264,252 288,294 312,252" fill="#302452"/>
    <polygon points="288,294 312,252 336,294" fill="#7b5daa"/>
    <polygon points="312,252 336,294 360,252" fill="#302452"/>
    <polygon points="336,294 360,252 384,294" fill="#110c22"/>
    <polygon points="360,252 384,294 408,252" fill="#302452"/>
    <polygon points="384,294 408,252 432,294" fill="#7b5daa"/>
    <polygon points="408,252 432,294 456,252" fill="#302452"/>
    <polygon points="432,294 456,252 480,294" fill="#110c22"/>
    <polygon points="456,252 480,294 504,252" fill="#302452"/>
    <polygon points="480,294 504,252 528,294" fill="#7b5daa"/>
    <polygon points="504,252 528,294 552,252" fill="#302452"/>
    <polygon points="528,294 552,252 576,294" fill="#110c22"/>
    <polygon points="-48,294 -24,336 0,294" fill="#302452"/>
    <polygon points="-24,336 0,294 24,336" fill="#7b5daa"/>
    <polygon points="0,294 24,336 48,294" fill="#302452"/>
    <polygon points="24,336 48,294 72,336" fill="#110c22"/>
    <polygon points="48,294 72,336 96,294" fill="#302452"/>
    <polygon points="72,336 96,294 120,336" fill="#7b5daa"/>
    <polygon points="96,294 120,336 144,294" fill="#302452"/>
    <polygon points="120,336 144,294 168,336" fill="#110c22"/>
    <polygon points="144,294 168,336 192,294" fill="#302452"/>
    <polygon points="168,336 192,294 216,336" fill="#7b5daa"/>
    <polygon points="192,294 216,336 240,294" fill="#302452"/>
    <polygon points="216,336 240,294 264,336" fill="#110c22"/>
    <polygon points="240,294 264,336 288,294" fill="#302452"/>
    <polygon points="264,336 288,294 312,336" fill="#7b5daa"/>
    <polygon points="288,294 312,336 336,294" fill="#302452"/>
    <polygon points="312,336 336,294 360,336" fill="#110c22"/>
    <polygon points="336,294 360,336 384,294" fill="#302452"/>
    <polygon points="360,336 384,294 408,336" fill="#7b5daa"/>
    <polygon points="384,294 408,336 432,294" fill="#302452"/>
    <polygon points="408,336 432,294 456,336" fill="#110c22"/>
    <polygon points="432,294 456,336 480,294" fill="#302452"/>
    <polygon points="456,336 480,294 504,336" fill="#7b5daa"/>
    <polygon points="480,294 504,336 528,294" fill="#302452"/>
    <polygon points="504,336 528,294 552,336" fill="#110c22"/>
    <polygon points="528,294 552,336 576,294" fill="#302452"/>
    <polygon points="-48,378 -24,336 0,378" fill="#7b5daa"/>
    <polygon points="-24,336 0,378 24,336" fill="#302452"/>
    <polygon points="0,378 24,336 48,378" fill="#110c22"/>
    <polygon points="24,336 48,378 72,336" fill="#302452"/>
    <polygon points="48,378 72,336 96,378" fill="#7b5daa"/>
    <polygon points="72,336 96,378 120,336" fill="#302452"/>
    <polygon points="96,378 120,336 144,378" fill="#110c22"/>
    <polygon points="120,336 144,378 168,336" fill="#302452"/>
    <polygon points="144,378 168,336 192,378" fill="#7b5daa"/>
    <polygon points="168,336 192,378 216,336" fill="#302452"/>
    <polygon points="192,378 216,336 240,378" fill="#110c22"/>
    <polygon points="216,336 240,378 264,336" fill="#302452"/>
    <polygon points="240,378 264,336 288,378" fill="#7b5daa"/>
    <polygon points="264,336 288,378 312,336" fill="#302452"/>
    <polygon points="288,378 312,336 336,378" fill="#110c22"/>
    <polygon points="312,336 336,378 360,336" fill="#302452"/>
    <polygon points="336,378 360,336 384,378" fill="#7b5daa"/>
    <polygon points="360,336 384,378 408,336" fill="#302452"/>
    <polygon points="384,378 408,336 432,378" fill="#110c22"/>
    <polygon points="408,336 432,378 456,336" fill="#302452"/>
    <polygon points="432,378 456,336 480,378" fill="#7b5daa"/>
    <polygon points="456,336 480,378 504,336" fill="#302452"/>
    <polygon points="480,378 504,336 528,378" fill="#110c22"/>
    <polygon points="504,336 528,378 552,336" fill="#302452"/>
    <polygon points="528,378 552,336 576,378" fill="#7b5daa"/>
    <polygon points="-48,378 -24,420 0,378" fill="#302452"/>
    <polygon points="-24,420 0,378 24,420" fill="#110c22"/>
    <polygon points="0,378 24,420 48,378" fill="#302452"/>
    <polygon points="24,420 48,378 72,420" fill="#7b5daa"/>
    <polygon points="48,378 72,420 96,378" fill="#302452"/>
    <polygon points="72,420 96,378 120,420" fill="#110c22"/>
    <polygon points="96,378 120,420 144,378" fill="#302452"/>
    <polygon points="120,420 144,378 168,420" fill="#7b5daa"/>
    <polygon points="144,378 168,420 192,378" fill="#302452"/>
    <polygon points="168,420 192,378 216,420" fill="#110c22"/>
    <polygon points="192,378 216,420 240,378" fill="#302452"/>
    <polygon points="216,420 240,378 264,420" fill="#7b5daa"/>
    <polygon points="240,378 264,420 288,378" fill="#302452"/>
    <polygon points="264,420 288,378 312,420" fill="#110c22"/>
    <polygon points="288,378 312,420 336,378" fill="#302452"/>
    <polygon points="312,420 336,378 360,420" fill="#7b5daa"/>
    <polygon points="336,378 360,420 384,378" fill="#302452"/>
    <polygon points="360,420 384,378 408,420" fill="#110c22"/>
    <polygon points="384,378 408,420 432,378" fill="#302452"/>
    <polygon points="408,420 432,378 456,420" fill="#7b5daa"/>
    <polygon points="432,378 456,420 480,378" fill="#302452"/>
    <polygon points="456,420 480,378 504,420" fill="#110c22"/>
    <polygon points="480,378 504,420 528,378" fill="#302452"/>
    <polygon points="504,420 528,378 552,420" fill="#7b5daa"/>
    <polygon points="528,378 552,420 576,378" fill="#302452"/>
    <polygon points="-48,462 -24,420 0,462" fill="#110c22"/>
    <polygon points="-24,420 0,462 24,420" fill="#302452"/>
    <polygon points="0,462 24,420 48,462" fill="#7b5daa"/>
    <polygon points="24,420 48,462 72,420" fill="#302452"/>
    <polygon points="48,462 72,420 96,462" fill="#110c22"/>
    <polygon points="72,420 96,462 120,420" fill="#302452"/>
    <polygon points="96,462 120,420 144,462" fill="#7b5daa"/>
    <polygon points="120,420 144,462 168,420" fill="#302452"/>
    <polygon points="144,462 168,420 192,462" fill="#110c22"/>
    <polygon points="168,420 192,462 216,420" fill="#302452"/>
    <polygon points="192,462 216,420 240,462" fill="#7b5daa"/>
    <polygon points="216,420 240,462 264,420" fill="#302452"/>
    <polygon points="240,462 264,420 288,462" fill="#110c22"/>
    <polygon points="264,420 288,462 312,420" fill="#302452"/>
    <polygon points="288,462 312,420 336,462" fill="#7b5daa"/>
    <polygon points="312,420 336,462 360,420" fill="#302452"/>
    <polygon points="336,462 360,420 384,462" fill="#110c22"/>
    <polygon points="360,420 384,462 408,420" fill="#302452"/>
    <polygon points="384,462 408,420 432,462" fill="#7b5daa"/>
    <polygon points="408,420 432,462 456,420" fill="#302452"/>
    <polygon points="432,462 456,420 480,462" fill="#110c22"/>
    <polygon points="456,420 480,462 504,420" fill="#302452"/>
    <polygon points="480,462 504,420 528,462" fill="#7b5daa"/>
    <polygon points="504,420 528,462 552,420" fill="#302452"/>
    <polygon points="528,462 552,420 576,462" fill="#110c22"/>
    <polygon points="-48,462 -24,504 0,462" fill="#302452"/>
    <polygon points="-24,504 0,462 24,504" fill="#7b5daa"/>
    <polygon points="0,462 24,504 48,462" fill="#302452"/>
    <polygon points="24,504 48,462 72,504" fill="#110c22"/>
    <polygon points="48,462 72,504 96,462" fill="#302452"/>
    <polygon points="72,504 96,462 120,504" fill="#7b5daa"/>
    <polygon points="96,462 120,504 144,462" fill="#302452"/>
    <polygon points="120,504 144,462 168,504" fill="#110c22"/>
    <polygon points="144,462 168,504 192,462" fill="#302452"/>
    <polygon points="168,504 192,462 216,504" fill="#7b5daa"/>
    <polygon points="192,462 216,504 240,462" fill="#302452"/>
    <polygon points="216,504 240,462 264,504" fill="#110c22"/>
    <polygon points="240,462 264,504 288,462" fill="#302452"/>
    <polygon points="264,504 288,462 312,504" fill="#7b5daa"/>
    <polygon points="288,462 312,504 336,462" fill="#302452"/>
    <polygon points="312,504 336,462 360,504" fill="#110c22"/>
    <polygon points="336,462 360,504 384,462" fill="#302452"/>
    <polygon points="360,504 384,462 408,504" fill="#7b5daa"/>
    <polygon points="384,462 408,504 432,462" fill="#302452"/>
    <polygon points="408,504 432,462 456,504" fill="#110c22"/>
    <polygon points="432,462 456,504 480,462" fill="#302452"/>
    <polygon points="456,504 480,462 504,504" fill="#7b5daa"/>
    <polygon points="480,462 504,504 528,462" fill="#302452"/>
    <polygon points="504,504 528,462 552,504" fill="#110c22"/>
    <polygon points="528,462 552,504 576,462" fill="#302452"/>
    <polygon points="-48,546 -24,504 0,546" fill="#7b5daa"/>
    <polygon points="-24,504 0,546 24,504" fill="#302452"/>
    <polygon points="0,546 24,504 48,546" fill="#110c22"/>
    <polygon points="24,504 48,546 72,504" fill="#302452"/>
    <polygon points="48,546 72,504 96,546" fill="#7b5daa"/>
    <polygon points="72,504 96,546 120,504" fill="#302452"/>
    <polygon points="96,546 120,504 144,546" fill="#110c22"/>
    <polygon points="120,504 144,546 168,504" fill="#302452"/>
    <polygon points="144,546 168,504 192,546" fill="#7b5daa"/>
    <polygon points="168,504 192,546 216,504" fill="#302452"/>
    <polygon points="192,546 216,504 240,546" fill="#110c22"/>
    <polygon points="216,504 240,546 264,504" fill="#302452"/>
    <polygon points="240,546 264,504 288,546" fill="#7b5daa"/>
    <polygon points="264,504 288,546 312,504" fill="#302452"/>
    <polygon points="288,546 312,504 336,546" fill="#110c22"/>
    <polygon points="312,504 336,546 360,504" fill="#302452"/>
    <polygon points="336,546 360,504 384,546" fill="#7b5daa"/>
    <polygon points="360,504 384,546 408,504" fill="#302452"/>
    <polygon points="384,546 408,504 432,546" fill="#110c22"/>
    <polygon points="408,504 432,546 456,504" fill="#302452"/>
    <polygon points="432,546 456,504 480,546" fill="#7b5daa"/>
    <polygon points="456,504 480,546 504,504" fill="#302452"/>
    <polygon points="480,546 504,504 528,546" fill="#110c22"/>
    <polygon points="504,504 528,546 552,504" fill="#302452"/>
    <polygon points="528,546 552,504 576,546" fill="#7b5daa"/>
    <polygon points="-48,546 -24,588 0,546" fill="#302452"/>
    <polygon points="-24,588 0,546 24,588" fill="#110c22"/>
    <polygon points="0,546 24,588 48,546" fill="#302452"/>
    <polygon points="24,588 48,546 72,588" fill="#7b5daa"/>
    <polygon points="48,546 72,588 96,546" fill="#302452"/>
    <polygon points="72,588 96,546 120,588" fill="#110c22"/>
    <polygon points="96,546 120,588 144,546" fill="#302452"/>
    <polygon points="120,588 144,546 168,588" fill="#7b5daa"/>
    <polygon points="144,546 168,588 192,546" fill="#302452"/>
    <polygon points="168,588 192,546 216,588" fill="#110c22"/>
    <polygon points="192,546 216,588 240,546" fill="#302452"/>
    <polygon points="216,588 240,546 264,588" fill="#7b5daa"/>
    <polygon points="240,546 264,588 288,546" fill="#302452"/>
    <polygon points="264,588 288,546 312,588" fill="#110c22"/>
    <polygon points="288,546 312,588 336,546" fill="#302452"/>
    <polygon points="312,588 336,546 360,588" fill="#7b5daa"/>
    <polygon points="336,546 360,588 384,546" fill="#302452"/>
    <polygon points="360,588 384,546 408,588" fill="#110c22"/>
    <polygon points="384,546 408,588 432,546" fill="#302452"/>
    <polygon points="408,588 432,546 456,588" fill="#7b5daa"/>
    <polygon points="432,546 456,588 480,546" fill="#302452"/>
    <polygon points="456,588 480,546 504,588" fill="#110c22"/>
    <polygon points="480,546 504,588 528,546" fill="#302452"/>
    <polygon points="504,588 528,546 552,588" fill="#7b5daa"/>
    <polygon points="528,546 552,588 576,546" fill="#302452"/>
    <circle cx="120" cy="120" r="48" fill="#ffffff"/>
  </g>
</svg>